HIERARCHY
ROOT Hips
{
	OFFSET 0.000000 97.167313 0.000000
	CHANNELS 6 Xposition Yposition Zposition Xrotation Yrotation Zrotation
	JOINT Spine
	{
		OFFSET 0.000000 13.784798 0.064400
		CHANNELS 3 Xrotation Yrotation Zrotation
		JOINT Spine1
		{
			OFFSET 0.000000 12.037903 0.404700
			CHANNELS 3 Xrotation Yrotation Zrotation
			JOINT Spine2
			{
				OFFSET 0.000000 17.795601 0.420200
				CHANNELS 3 Xrotation Yrotation Zrotation
				JOINT Neck
				{
					OFFSET 0.000000 39.131302 11.954600
					CHANNELS 3 Xrotation Yrotation Zrotation
					JOINT Head
					{
						OFFSET 0.000000 14.456192 15.627699
						CHANNELS 3 Xrotation Yrotation Zrotation
						JOINT HeadTop_End
						{
							OFFSET 0.000000 15.703506 7.603401
							CHANNELS 3 Xrotation Yrotation Zrotation
							End Site
							{
								OFFSET 0.000000 17.447403 0.000000
							}
						}
					}
				}
				JOINT LeftShoulder
				{
					OFFSET 17.399500 24.608795 1.168800
					CHANNELS 3 Xrotation Yrotation Zrotation
					JOINT LeftArm
					{
						OFFSET 18.980635 5.765305 1.818600
						CHANNELS 3 Xrotation Yrotation Zrotation
						JOINT LeftForeArm
						{
							OFFSET 49.290169 0.000000 0.000000
							CHANNELS 3 Xrotation Yrotation Zrotation
							JOINT LeftHand
							{
								OFFSET 31.562012 0.000000 0.000000
								CHANNELS 3 Xrotation Yrotation Zrotation
								JOINT LeftHandThumb1
								{
									OFFSET 6.133995 -4.388519 7.076070
									CHANNELS 3 Xrotation Yrotation Zrotation
									JOINT LeftHandThumb2
									{
										OFFSET 6.037666 -3.485840 3.485847
										CHANNELS 3 Xrotation Yrotation Zrotation
										JOINT LeftHandThumb3
										{
											OFFSET 6.496506 -3.750763 3.750761
											CHANNELS 3 Xrotation Yrotation Zrotation
											JOINT LeftHandThumb4
											{
												OFFSET 5.616882 -3.242905 3.242910
												CHANNELS 3 Xrotation Yrotation Zrotation
												End Site
												{
													OFFSET -1.254608 7.132141 0.375429
												}
											}
										}
									}
								}
								JOINT LeftHandPinky1
								{
									OFFSET 18.920792 -0.453171 -11.426712
									CHANNELS 3 Xrotation Yrotation Zrotation
									JOINT LeftHandPinky2
									{
										OFFSET 4.919586 0.000000 0.000000
										CHANNELS 3 Xrotation Yrotation Zrotation
										JOINT LeftHandPinky3
										{
											OFFSET 5.233047 0.000000 0.000000
											CHANNELS 3 Xrotation Yrotation Zrotation
											JOINT LeftHandPinky4
											{
												OFFSET 5.571716 0.000000 0.000000
												CHANNELS 3 Xrotation Yrotation Zrotation
												End Site
												{
													OFFSET -3.459808 4.342407 -0.466164
												}
											}
										}
									}
								}
								JOINT LeftHandRing1
								{
									OFFSET 22.726120 -0.094986 -6.500475
									CHANNELS 3 Xrotation Yrotation Zrotation
									JOINT LeftHandRing2
									{
										OFFSET 6.408615 0.000000 0.000000
										CHANNELS 3 Xrotation Yrotation Zrotation
										JOINT LeftHandRing3
										{
											OFFSET 6.150223 0.000000 0.000000
											CHANNELS 3 Xrotation Yrotation Zrotation
											JOINT LeftHandRing4
											{
												OFFSET 6.145386 0.000000 0.000000
												CHANNELS 3 Xrotation Yrotation Zrotation
												End Site
												{
													OFFSET -3.671402 4.923981 -0.202372
												}
											}
										}
									}
								}
								JOINT LeftHandMiddle1
								{
									OFFSET 23.373947 0.000000 0.000001
									CHANNELS 3 Xrotation Yrotation Zrotation
									JOINT LeftHandMiddle2
									{
										OFFSET 6.996567 0.000000 0.000000
										CHANNELS 3 Xrotation Yrotation Zrotation
										JOINT LeftHandMiddle3
										{
											OFFSET 7.015945 0.000000 0.000000
											CHANNELS 3 Xrotation Yrotation Zrotation
											JOINT LeftHandMiddle4
											{
												OFFSET 7.721573 0.000000 0.000000
												CHANNELS 3 Xrotation Yrotation Zrotation
												End Site
												{
													OFFSET -4.651108 6.158463 0.251582
												}
											}
										}
									}
								}
								JOINT LeftHandIndex1
								{
									OFFSET 21.310577 -0.490082 6.209344
									CHANNELS 3 Xrotation Yrotation Zrotation
									JOINT LeftHandIndex2
									{
										OFFSET 7.536453 0.000000 0.000000
										CHANNELS 3 Xrotation Yrotation Zrotation
										JOINT LeftHandIndex3
										{
											OFFSET 7.512344 0.000000 0.000000
											CHANNELS 3 Xrotation Yrotation Zrotation
											JOINT LeftHandIndex4
											{
												OFFSET 10.212402 0.000000 0.000001
												CHANNELS 3 Xrotation Yrotation Zrotation
												End Site
												{
													OFFSET -5.180801 8.690506 1.388433
												}
											}
										}
									}
								}
							}
						}
					}
				}
				JOINT RightShoulder
				{
					OFFSET -17.399500 24.608795 1.168800
					CHANNELS 3 Xrotation Yrotation Zrotation
					JOINT RightArm
					{
						OFFSET -18.980635 5.765305 1.818600
						CHANNELS 3 Xrotation Yrotation Zrotation
						JOINT RightForeArm
						{
							OFFSET -49.290169 0.000000 0.000000
							CHANNELS 3 Xrotation Yrotation Zrotation
							JOINT RightHand
							{
								OFFSET -31.562012 0.000000 0.000000
								CHANNELS 3 Xrotation Yrotation Zrotation
								JOINT RightHandThumb1
								{
									OFFSET -6.133995 -4.388519 7.076070
									CHANNELS 3 Xrotation Yrotation Zrotation
									JOINT RightHandThumb2
									{
										OFFSET -6.037666 -3.485840 3.485847
										CHANNELS 3 Xrotation Yrotation Zrotation
										JOINT RightHandThumb3
										{
											OFFSET -6.496506 -3.750763 3.750761
											CHANNELS 3 Xrotation Yrotation Zrotation
											JOINT RightHandThumb4
											{
												OFFSET -5.616882 -3.242905 3.242910
												CHANNELS 3 Xrotation Yrotation Zrotation
												End Site
												{
													OFFSET 1.254608 7.132141 0.375429
												}
											}
										}
									}
								}
								JOINT RightHandIndex1
								{
									OFFSET -21.310577 -0.490082 6.209344
									CHANNELS 3 Xrotation Yrotation Zrotation
									JOINT RightHandIndex2
									{
										OFFSET -7.536453 0.000000 0.000000
										CHANNELS 3 Xrotation Yrotation Zrotation
										JOINT RightHandIndex3
										{
											OFFSET -7.512344 0.000000 0.000000
											CHANNELS 3 Xrotation Yrotation Zrotation
											JOINT RightHandIndex4
											{
												OFFSET -10.212402 0.000000 0.000001
												CHANNELS 3 Xrotation Yrotation Zrotation
												End Site
												{
													OFFSET 5.180801 8.690506 1.388433
												}
											}
										}
									}
								}
								JOINT RightHandMiddle1
								{
									OFFSET -23.373947 0.000000 0.000001
									CHANNELS 3 Xrotation Yrotation Zrotation
									JOINT RightHandMiddle2
									{
										OFFSET -6.996567 0.000000 0.000000
										CHANNELS 3 Xrotation Yrotation Zrotation
										JOINT RightHandMiddle3
										{
											OFFSET -7.015945 0.000000 0.000000
											CHANNELS 3 Xrotation Yrotation Zrotation
											JOINT RightHandMiddle4
											{
												OFFSET -7.721573 0.000000 0.000000
												CHANNELS 3 Xrotation Yrotation Zrotation
												End Site
												{
													OFFSET 4.651108 6.158463 0.251582
												}
											}
										}
									}
								}
								JOINT RightHandRing1
								{
									OFFSET -22.726120 -0.094986 -6.500475
									CHANNELS 3 Xrotation Yrotation Zrotation
									JOINT RightHandRing2
									{
										OFFSET -6.408615 0.000000 0.000000
										CHANNELS 3 Xrotation Yrotation Zrotation
										JOINT RightHandRing3
										{
											OFFSET -6.150223 0.000000 0.000000
											CHANNELS 3 Xrotation Yrotation Zrotation
											JOINT RightHandRing4
											{
												OFFSET -6.145386 0.000000 0.000000
												CHANNELS 3 Xrotation Yrotation Zrotation
												End Site
												{
													OFFSET 3.671402 4.923981 -0.202372
												}
											}
										}
									}
								}
								JOINT RightHandPinky1
								{
									OFFSET -18.920792 -0.453171 -11.426712
									CHANNELS 3 Xrotation Yrotation Zrotation
									JOINT RightHandPinky2
									{
										OFFSET -4.919586 0.000000 0.000000
										CHANNELS 3 Xrotation Yrotation Zrotation
										JOINT RightHandPinky3
										{
											OFFSET -5.233047 0.000000 0.000000
											CHANNELS 3 Xrotation Yrotation Zrotation
											JOINT RightHandPinky4
											{
												OFFSET -5.571716 0.000000 0.000000
												CHANNELS 3 Xrotation Yrotation Zrotation
												End Site
												{
													OFFSET 3.459808 4.342407 -0.466164
												}
											}
										}
									}
								}
							}
						}
					}
				}
			}
		}
	}
	JOINT LeftUpLeg
	{
		OFFSET 19.899099 -7.885101 -3.429500
		CHANNELS 3 Xrotation Yrotation Zrotation
		JOINT LeftLeg
		{
			OFFSET 1.745560 -36.997807 10.304700
			CHANNELS 3 Xrotation Yrotation Zrotation
			JOINT LeftFoot
			{
				OFFSET -1.745558 -29.803308 -13.615400
				CHANNELS 3 Xrotation Yrotation Zrotation
				JOINT LeftToeBase
				{
					OFFSET 1.181900 -18.539904 15.226099
					CHANNELS 3 Xrotation Yrotation Zrotation
					JOINT LeftToe_End
					{
						OFFSET -0.863701 1.402801 16.534700
						CHANNELS 3 Xrotation Yrotation Zrotation
						End Site
						{
							OFFSET 0.000000 16.616566 0.000000
						}
					}
				}
			}
		}
	}
	JOINT RightUpLeg
	{
		OFFSET -19.899099 -7.885101 -3.429500
		CHANNELS 3 Xrotation Yrotation Zrotation
		JOINT RightLeg
		{
			OFFSET -1.745560 -36.997807 10.304700
			CHANNELS 3 Xrotation Yrotation Zrotation
			JOINT RightFoot
			{
				OFFSET 1.745558 -29.803308 -13.615400
				CHANNELS 3 Xrotation Yrotation Zrotation
				JOINT RightToeBase
				{
					OFFSET -1.181900 -18.539904 15.226099
					CHANNELS 3 Xrotation Yrotation Zrotation
					JOINT RightToe_End
					{
						OFFSET 0.863701 1.402801 16.534700
						CHANNELS 3 Xrotation Yrotation Zrotation
						End Site
						{
							OFFSET 0.000000 16.616566 0.000000
						}
					}
				}
			}
		}
	}
}
MOTION
Frames: 4
Frame Time: 0.033333
-0.767058 85.646782 1.898808 16.708559 10.860137 9.988510 3.890959 2.845718 1.112126 7.711157 5.833810 2.414414 7.711151 5.833811 2.414416 -32.460477 -16.768289 -18.696878 -2.797854 -26.606876 4.289813 -0.000000 -0.000001 -0.000000 -3.767383 -20.033872 3.859777 -43.015435 -26.905112 -63.145147 -0.061316 -127.646195 -0.136095 94.975085 -17.300458 -5.154302 -14.379985 16.084913 -31.667588 -7.281313 13.643763 25.949991 0.000017 0.000014 0.000002 -0.000000 -0.000000 0.000000 -4.025460 -8.323805 -39.861636 -6.019380 -6.898128 -94.636574 0.000008 0.000003 -0.000012 0.000002 -0.000000 -0.000004 -4.606734 -2.727202 -51.968973 -6.213546 -4.673613 -106.187360 -0.000003 0.000004 -0.000003 -0.000001 0.000003 0.000002 -0.496978 1.515597 -49.698256 -5.619031 -4.585980 -101.482438 0.000003 0.000001 0.000007 0.000001 0.000000 0.000008 4.987211 13.719480 -50.238838 1.114168 0.902537 -94.731575 0.000001 -0.000001 -0.000015 -0.000000 -0.000002 -0.000004 0.157435 -13.234932 -5.870738 -58.262777 39.369661 18.570222 -0.033217 39.949052 -0.115736 14.767210 -3.683037 29.758981 8.396359 9.023815 21.586502 -14.421620 -20.182017 -29.479124 0.000001 0.000012 0.000002 -0.000001 0.000001 -0.000001 -5.666215 5.418749 -6.849892 0.118367 -0.685776 16.884106 -0.000002 0.000009 0.000006 -0.000002 -0.000003 -0.000002 -1.135189 -1.669082 -0.638875 -0.255008 1.291647 21.370385 -0.000000 0.000009 -0.000003 -0.000000 0.000000 -0.000004 1.153973 -11.172485 -0.636986 -0.811978 2.803728 26.944123 0.000010 0.000015 0.000006 -0.000001 0.000001 -0.000003 5.423755 -9.266327 9.215777 -0.277416 2.453240 14.112590 -0.000002 -0.000001 -0.000001 -0.000002 -0.000000 -0.000001 -19.123857 -10.696953 -11.624557 22.409685 1.477074 -0.254129 -15.161485 -5.147787 -1.049720 -7.515716 -1.388080 0.114252 -0.000000 -0.000001 0.000000 -29.850737 -3.076463 -22.622051 43.654013 1.580893 2.009815 -29.148030 1.349382 6.659000 -2.711618 3.283602 -1.131483 0.000000 0.000000 0.000000 
-0.789083 85.652603 1.872663 16.680773 10.959723 10.083942 3.913040 2.829554 1.088882 7.756745 5.800685 2.369998 7.756735 5.800677 2.369996 -32.410982 -16.461541 -19.061907 -2.545066 -26.589102 4.465224 -0.000000 0.000003 -0.000001 -3.789102 -19.834644 3.831121 -43.096035 -27.186344 -62.927168 -0.062186 -127.558291 -0.137336 94.817868 -17.040274 -5.071263 -14.246549 16.043653 -31.760858 -7.349213 13.704484 25.980353 0.000021 0.000016 0.000003 -0.000001 0.000001 0.000000 -4.021650 -8.319254 -39.862893 -6.017979 -6.898239 -94.624730 0.000005 0.000006 -0.000014 0.000001 -0.000002 -0.000001 -4.607106 -2.724346 -51.994347 -6.211857 -4.674114 -106.166657 -0.000001 0.000002 0.000000 0.000000 0.000002 0.000000 -0.485408 1.525086 -49.712641 -5.617099 -4.586377 -101.458096 0.000008 -0.000003 0.000014 -0.000001 -0.000001 0.000008 4.999222 13.701184 -50.246922 1.114260 0.902527 -94.737360 -0.000001 0.000004 -0.000012 -0.000002 -0.000002 -0.000001 0.608120 -12.918892 -5.862510 -58.757297 38.936163 18.327599 -0.031325 40.396140 -0.116546 15.284980 -3.819683 30.024258 8.759145 7.574721 21.671371 -14.522280 -20.220645 -29.588280 0.000004 0.000015 0.000000 -0.000000 -0.000002 -0.000000 -5.990708 5.310178 -4.138558 0.150100 -0.772405 19.274963 0.000001 0.000008 0.000011 -0.000000 -0.000001 0.000001 -1.222497 -2.329372 1.551734 -0.341341 1.487647 24.908798 0.000001 0.000006 0.000001 -0.000000 0.000002 -0.000001 1.455498 -11.928890 1.967367 -0.953953 3.066410 29.715100 0.000013 0.000014 0.000004 -0.000001 -0.000000 -0.000003 5.687546 -10.037583 11.416356 -0.416364 2.951093 17.049814 -0.000001 -0.000002 0.000002 0.000002 -0.000001 0.000007 -19.133254 -10.774034 -11.719127 22.287223 1.470684 -0.252459 -15.065398 -5.134289 -1.078623 -7.494469 -1.346887 0.117648 0.000000 -0.000001 -0.000000 -29.851239 -3.048433 -22.728141 43.733616 1.587166 2.015303 -29.199390 1.276009 6.645742 -2.713948 3.265185 -1.137648 0.000000 -0.000000 0.000000 
-0.807318 85.658897 1.847855 16.658702 11.044640 10.175928 3.937120 2.811649 1.061808 7.806227 5.764637 2.321720 7.806233 5.764642 2.321723 -32.438262 -16.554336 -18.951378 -2.385271 -26.592483 4.397275 -0.000000 -0.000000 0.000000 -3.810130 -19.625968 3.811165 -43.155539 -27.509004 -62.698411 -0.062927 -127.498171 -0.138592 94.720777 -16.720768 -5.017181 -14.106405 16.005235 -31.856873 -7.411007 13.758667 26.006041 0.000019 0.000010 0.000002 -0.000001 -0.000001 0.000001 -4.017573 -8.314306 -39.864300 -6.016500 -6.898380 -94.611794 0.000006 0.000007 -0.000015 -0.000000 -0.000002 -0.000007 -4.607468 -2.721198 -52.021610 -6.210037 -4.674639 -106.144261 -0.000001 0.000001 -0.000003 0.000001 0.000002 0.000003 -0.472878 1.535381 -49.728299 -5.614983 -4.586814 -101.431704 0.000007 -0.000002 0.000018 0.000003 -0.000001 0.000008 5.013612 13.690251 -50.253469 1.114369 0.902515 -94.743617 0.000004 0.000003 -0.000012 0.000000 -0.000001 -0.000001 0.970369 -12.744244 -5.980592 -59.128374 38.562930 18.206146 -0.029913 40.698106 -0.117220 16.235064 -3.828681 30.338105 9.163990 6.484749 21.929231 -15.096624 -20.810285 -29.703564 0.000002 0.000010 0.000002 -0.000000 -0.000001 -0.000000 -6.321120 5.095042 -1.423589 0.184327 -0.854949 21.595325 0.000002 0.000010 0.000011 -0.000000 -0.000003 -0.000002 -1.279205 -2.428663 3.344883 -0.387517 1.581541 26.626630 0.000001 0.000008 0.000001 -0.000000 0.000002 -0.000004 1.742497 -12.243879 4.088964 -1.027543 3.191648 31.062970 0.000012 0.000016 0.000006 0.000000 -0.000001 -0.000002 5.939719 -10.574674 13.189521 -0.483715 3.161007 18.308957 0.000000 -0.000002 -0.000003 0.000002 0.000001 0.000002 -19.124651 -10.871113 -11.812455 22.136684 1.460472 -0.251265 -15.001962 -5.083542 -1.109895 -7.434228 -1.291949 0.127660 -0.000000 -0.000001 -0.000000 -29.869432 -3.042980 -22.843756 43.806545 1.594356 2.021501 -29.241262 1.236737 6.642094 -2.714429 3.248462 -1.144318 -0.000000 -0.000000 -0.000000 
-0.821629 85.665344 1.824316 16.642849 11.117795 10.263100 3.962874 2.792271 1.031489 7.859038 5.726158 2.270210 7.859015 5.726151 2.270209 -32.584927 -16.923961 -18.507543 -2.248865 -26.610477 4.161637 0.000001 -0.000000 -0.000001 -3.830480 -19.408657 3.800240 -43.200653 -27.870824 -62.463733 -0.063524 -127.463242 -0.139829 94.676934 -16.350348 -4.993448 -13.959444 15.966918 -31.956840 -7.466829 13.806658 26.027506 0.000018 0.000011 0.000005 -0.000001 -0.000002 0.000000 -4.013217 -8.309030 -39.865827 -6.014916 -6.898520 -94.598031 0.000006 0.000001 -0.000007 -0.000000 0.000004 -0.000005 -4.607724 -2.717799 -52.050502 -6.208092 -4.675213 -106.120390 -0.000002 0.000004 0.000002 0.000004 0.000001 0.000002 -0.459496 1.546376 -49.744992 -5.612725 -4.587267 -101.403563 0.000003 -0.000000 0.000007 0.000002 0.000000 0.000004 5.030260 13.686110 -50.258619 1.114480 0.902471 -94.750351 -0.000001 0.000005 -0.000014 -0.000003 0.000001 0.000001 1.347708 -12.519326 -6.170059 -59.496159 38.179091 18.047339 -0.028986 40.924021 -0.117781 17.464497 -3.730433 30.700607 9.636218 5.290210 22.231298 -15.819527 -21.560288 -29.842749 0.000001 0.000014 0.000002 0.000001 0.000000 0.000001 -6.682035 4.885507 1.548816 0.220647 -0.933275 23.842404 0.000003 0.000014 0.000007 -0.000000 0.000003 -0.000003 -1.326848 -2.197769 4.738025 -0.376889 1.561975 26.244498 0.000000 0.000009 -0.000006 0.000001 0.000000 -0.000009 1.906497 -11.665396 5.371732 -1.007269 3.157848 30.696977 0.000012 0.000016 0.000001 0.000001 -0.000000 -0.000005 6.091762 -10.896938 14.086834 -0.478533 3.144182 18.215247 0.000000 -0.000001 0.000007 0.000002 -0.000000 0.000002 -19.102350 -10.984159 -11.903200 21.964015 1.447018 -0.250521 -14.967931 -5.003081 -1.142821 -7.340333 -1.230302 0.143213 -0.000000 -0.000000 0.000000 -29.903012 -3.057170 -22.965956 43.872699 1.602223 2.028239 -29.274648 1.224954 6.646652 -2.713359 3.233283 -1.151094 0.000000 0.000000 -0.000000 
